<?xml version="1.0" encoding="utf-8" standalone="no"?>
<!DOCTYPE svg PUBLIC "-//W3C//DTD SVG 1.1//EN"
  "http://www.w3.org/Graphics/SVG/1.1/DTD/svg11.dtd">
<svg xmlns:xlink="http://www.w3.org/1999/xlink" width="511.856797pt" height="276.169904pt" viewBox="0 0 511.856797 276.169904" xmlns="http://www.w3.org/2000/svg" version="1.1">
 <metadata>
  <rdf:RDF xmlns:dc="http://purl.org/dc/elements/1.1/" xmlns:cc="http://creativecommons.org/ns#" xmlns:rdf="http://www.w3.org/1999/02/22-rdf-syntax-ns#">
   <cc:Work>
    <dc:type rdf:resource="http://purl.org/dc/dcmitype/StillImage"/>
    <dc:date>2024-02-29T18:36:39.822042</dc:date>
    <dc:format>image/svg+xml</dc:format>
    <dc:creator>
     <cc:Agent>
      <dc:title>Matplotlib v3.7.1, https://matplotlib.org/</dc:title>
     </cc:Agent>
    </dc:creator>
   </cc:Work>
  </rdf:RDF>
 </metadata>
 <defs>
  <style type="text/css">*{stroke-linejoin: round; stroke-linecap: butt}</style>
 </defs>
 <g id="figure_1">
  <g id="patch_1">
   <path d="M 0 276.169904 
L 511.856797 276.169904 
L 511.856797 0 
L 0 0 
L 0 276.169904 
z
" style="fill: none"/>
  </g>
  <g id="axes_1">
   <g id="patch_2">
    <path d="M 65.286719 36.96378 
L 504.656797 36.96378 
L 504.656797 7.2 
L 65.286719 7.2 
L 65.286719 36.96378 
z
" style="fill: none"/>
   </g>
   <g id="matplotlib.axis_1">
    <g id="xtick_1">
     <g id="line2d_1">
      <defs>
       <path id="m21d2671f1f" d="M 0 0 
L 0 6 
" style="stroke: #262626; stroke-width: 1.25"/>
      </defs>
      <g>
       <use xlink:href="#m21d2671f1f" x="124.665333" y="36.96378" style="fill: #262626; stroke: #262626; stroke-width: 1.25"/>
      </g>
     </g>
    </g>
    <g id="xtick_2">
     <g id="line2d_2">
      <g>
       <use xlink:href="#m21d2671f1f" x="204.9071" y="36.96378" style="fill: #262626; stroke: #262626; stroke-width: 1.25"/>
      </g>
     </g>
    </g>
    <g id="xtick_3">
     <g id="line2d_3">
      <g>
       <use xlink:href="#m21d2671f1f" x="285.148868" y="36.96378" style="fill: #262626; stroke: #262626; stroke-width: 1.25"/>
      </g>
     </g>
    </g>
    <g id="xtick_4">
     <g id="line2d_4">
      <g>
       <use xlink:href="#m21d2671f1f" x="365.390635" y="36.96378" style="fill: #262626; stroke: #262626; stroke-width: 1.25"/>
      </g>
     </g>
    </g>
    <g id="xtick_5">
     <g id="line2d_5">
      <g>
       <use xlink:href="#m21d2671f1f" x="445.632402" y="36.96378" style="fill: #262626; stroke: #262626; stroke-width: 1.25"/>
      </g>
     </g>
    </g>
   </g>
   <g id="matplotlib.axis_2"/>
   <g id="patch_3">
    <path d="M 151.605107 10.176378 
L 151.605107 33.987402 
L 213.284589 33.987402 
L 213.284589 10.176378 
L 151.605107 10.176378 
z
" clip-path="url(#pb1b10a4805)" style="fill: #198cb3; stroke: #3d3d3d; stroke-linejoin: miter"/>
   </g>
   <g id="line2d_6">
    <path d="M 151.605107 22.08189 
L 85.258086 22.08189 
" clip-path="url(#pb1b10a4805)" style="fill: none; stroke: #3d3d3d"/>
   </g>
   <g id="line2d_7">
    <path d="M 213.284589 22.08189 
L 305.216583 22.08189 
" clip-path="url(#pb1b10a4805)" style="fill: none; stroke: #3d3d3d"/>
   </g>
   <g id="line2d_8">
    <path d="M 85.258086 16.129134 
L 85.258086 28.034646 
" clip-path="url(#pb1b10a4805)" style="fill: none; stroke: #3d3d3d; stroke-linecap: round"/>
   </g>
   <g id="line2d_9">
    <path d="M 305.216583 16.129134 
L 305.216583 28.034646 
" clip-path="url(#pb1b10a4805)" style="fill: none; stroke: #3d3d3d; stroke-linecap: round"/>
   </g>
   <g id="line2d_10">
    <defs>
     <path id="m7155f6544e" d="M 0 3 
C 0.795609 3 1.55874 2.683901 2.12132 2.12132 
C 2.683901 1.55874 3 0.795609 3 0 
C 3 -0.795609 2.683901 -1.55874 2.12132 -2.12132 
C 1.55874 -2.683901 0.795609 -3 0 -3 
C -0.795609 -3 -1.55874 -2.683901 -2.12132 -2.12132 
C -2.683901 -1.55874 -3 -0.795609 -3 0 
C -3 0.795609 -2.683901 1.55874 -2.12132 2.12132 
C -1.55874 2.683901 -0.795609 3 0 3 
z
" style="stroke: #3d3d3d"/>
    </defs>
    <g clip-path="url(#pb1b10a4805)">
     <use xlink:href="#m7155f6544e" x="366.025347" y="22.08189" style="fill-opacity: 0; stroke: #3d3d3d"/>
     <use xlink:href="#m7155f6544e" x="369.569579" y="22.08189" style="fill-opacity: 0; stroke: #3d3d3d"/>
     <use xlink:href="#m7155f6544e" x="430.128243" y="22.08189" style="fill-opacity: 0; stroke: #3d3d3d"/>
     <use xlink:href="#m7155f6544e" x="319.581201" y="22.08189" style="fill-opacity: 0; stroke: #3d3d3d"/>
     <use xlink:href="#m7155f6544e" x="350.389686" y="22.08189" style="fill-opacity: 0; stroke: #3d3d3d"/>
     <use xlink:href="#m7155f6544e" x="324.536409" y="22.08189" style="fill-opacity: 0; stroke: #3d3d3d"/>
     <use xlink:href="#m7155f6544e" x="382.45682" y="22.08189" style="fill-opacity: 0; stroke: #3d3d3d"/>
     <use xlink:href="#m7155f6544e" x="331.549367" y="22.08189" style="fill-opacity: 0; stroke: #3d3d3d"/>
     <use xlink:href="#m7155f6544e" x="319.377633" y="22.08189" style="fill-opacity: 0; stroke: #3d3d3d"/>
     <use xlink:href="#m7155f6544e" x="355.702502" y="22.08189" style="fill-opacity: 0; stroke: #3d3d3d"/>
     <use xlink:href="#m7155f6544e" x="344.543333" y="22.08189" style="fill-opacity: 0; stroke: #3d3d3d"/>
     <use xlink:href="#m7155f6544e" x="372.261844" y="22.08189" style="fill-opacity: 0; stroke: #3d3d3d"/>
     <use xlink:href="#m7155f6544e" x="346.424459" y="22.08189" style="fill-opacity: 0; stroke: #3d3d3d"/>
     <use xlink:href="#m7155f6544e" x="320.292215" y="22.08189" style="fill-opacity: 0; stroke: #3d3d3d"/>
     <use xlink:href="#m7155f6544e" x="350.861708" y="22.08189" style="fill-opacity: 0; stroke: #3d3d3d"/>
     <use xlink:href="#m7155f6544e" x="307.045899" y="22.08189" style="fill-opacity: 0; stroke: #3d3d3d"/>
     <use xlink:href="#m7155f6544e" x="336.462524" y="22.08189" style="fill-opacity: 0; stroke: #3d3d3d"/>
     <use xlink:href="#m7155f6544e" x="317.651119" y="22.08189" style="fill-opacity: 0; stroke: #3d3d3d"/>
     <use xlink:href="#m7155f6544e" x="415.780584" y="22.08189" style="fill-opacity: 0; stroke: #3d3d3d"/>
     <use xlink:href="#m7155f6544e" x="332.08165" y="22.08189" style="fill-opacity: 0; stroke: #3d3d3d"/>
     <use xlink:href="#m7155f6544e" x="312.783089" y="22.08189" style="fill-opacity: 0; stroke: #3d3d3d"/>
     <use xlink:href="#m7155f6544e" x="383.013741" y="22.08189" style="fill-opacity: 0; stroke: #3d3d3d"/>
     <use xlink:href="#m7155f6544e" x="409.150527" y="22.08189" style="fill-opacity: 0; stroke: #3d3d3d"/>
     <use xlink:href="#m7155f6544e" x="351.966763" y="22.08189" style="fill-opacity: 0; stroke: #3d3d3d"/>
     <use xlink:href="#m7155f6544e" x="309.516302" y="22.08189" style="fill-opacity: 0; stroke: #3d3d3d"/>
     <use xlink:href="#m7155f6544e" x="325.220945" y="22.08189" style="fill-opacity: 0; stroke: #3d3d3d"/>
     <use xlink:href="#m7155f6544e" x="484.68543" y="22.08189" style="fill-opacity: 0; stroke: #3d3d3d"/>
    </g>
   </g>
   <g id="line2d_11">
    <path d="M 180.130494 10.176378 
L 180.130494 33.987402 
" clip-path="url(#pb1b10a4805)" style="fill: none; stroke: #3d3d3d"/>
   </g>
   <g id="patch_4">
    <path d="M 65.286719 36.96378 
L 504.656797 36.96378 
" style="fill: none; stroke: #262626; stroke-width: 1.25; stroke-linejoin: miter; stroke-linecap: square"/>
   </g>
  </g>
  <g id="axes_2">
   <g id="patch_5">
    <path d="M 65.286719 225.467717 
L 504.656797 225.467717 
L 504.656797 56.806299 
L 65.286719 56.806299 
L 65.286719 225.467717 
z
" style="fill: none"/>
   </g>
   <g id="matplotlib.axis_3">
    <g id="xtick_6">
     <g id="line2d_12">
      <path d="M 124.665333 225.467717 
L 124.665333 56.806299 
" clip-path="url(#p507b9b0753)" style="fill: none; stroke: #cccccc; stroke-linecap: round"/>
     </g>
     <g id="line2d_13">
      <defs>
       <path id="m6e6f201342" d="M 0 0 
L 0 6 
" style="stroke: #000000; stroke-width: 1.25"/>
      </defs>
      <g>
       <use xlink:href="#m6e6f201342" x="124.665333" y="225.467717" style="stroke: #000000; stroke-width: 1.25"/>
      </g>
     </g>
     <g id="text_1">
      <!-- 2 -->
      <g transform="translate(119.734396 246.745295) scale(0.155 -0.155)">
       <defs>
        <path id="DejaVuSans-32" d="M 1228 531 
L 3431 531 
L 3431 0 
L 469 0 
L 469 531 
Q 828 903 1448 1529 
Q 2069 2156 2228 2338 
Q 2531 2678 2651 2914 
Q 2772 3150 2772 3378 
Q 2772 3750 2511 3984 
Q 2250 4219 1831 4219 
Q 1534 4219 1204 4116 
Q 875 4013 500 3803 
L 500 4441 
Q 881 4594 1212 4672 
Q 1544 4750 1819 4750 
Q 2544 4750 2975 4387 
Q 3406 4025 3406 3419 
Q 3406 3131 3298 2873 
Q 3191 2616 2906 2266 
Q 2828 2175 2409 1742 
Q 1991 1309 1228 531 
z
" transform="scale(0.015625)"/>
       </defs>
       <use xlink:href="#DejaVuSans-32"/>
      </g>
     </g>
    </g>
    <g id="xtick_7">
     <g id="line2d_14">
      <path d="M 204.9071 225.467717 
L 204.9071 56.806299 
" clip-path="url(#p507b9b0753)" style="fill: none; stroke: #cccccc; stroke-linecap: round"/>
     </g>
     <g id="line2d_15">
      <g>
       <use xlink:href="#m6e6f201342" x="204.9071" y="225.467717" style="stroke: #000000; stroke-width: 1.25"/>
      </g>
     </g>
     <g id="text_2">
      <!-- 4 -->
      <g transform="translate(199.976163 246.745295) scale(0.155 -0.155)">
       <defs>
        <path id="DejaVuSans-34" d="M 2419 4116 
L 825 1625 
L 2419 1625 
L 2419 4116 
z
M 2253 4666 
L 3047 4666 
L 3047 1625 
L 3713 1625 
L 3713 1100 
L 3047 1100 
L 3047 0 
L 2419 0 
L 2419 1100 
L 313 1100 
L 313 1709 
L 2253 4666 
z
" transform="scale(0.015625)"/>
       </defs>
       <use xlink:href="#DejaVuSans-34"/>
      </g>
     </g>
    </g>
    <g id="xtick_8">
     <g id="line2d_16">
      <path d="M 285.148868 225.467717 
L 285.148868 56.806299 
" clip-path="url(#p507b9b0753)" style="fill: none; stroke: #cccccc; stroke-linecap: round"/>
     </g>
     <g id="line2d_17">
      <g>
       <use xlink:href="#m6e6f201342" x="285.148868" y="225.467717" style="stroke: #000000; stroke-width: 1.25"/>
      </g>
     </g>
     <g id="text_3">
      <!-- 6 -->
      <g transform="translate(280.21793 246.745295) scale(0.155 -0.155)">
       <defs>
        <path id="DejaVuSans-36" d="M 2113 2584 
Q 1688 2584 1439 2293 
Q 1191 2003 1191 1497 
Q 1191 994 1439 701 
Q 1688 409 2113 409 
Q 2538 409 2786 701 
Q 3034 994 3034 1497 
Q 3034 2003 2786 2293 
Q 2538 2584 2113 2584 
z
M 3366 4563 
L 3366 3988 
Q 3128 4100 2886 4159 
Q 2644 4219 2406 4219 
Q 1781 4219 1451 3797 
Q 1122 3375 1075 2522 
Q 1259 2794 1537 2939 
Q 1816 3084 2150 3084 
Q 2853 3084 3261 2657 
Q 3669 2231 3669 1497 
Q 3669 778 3244 343 
Q 2819 -91 2113 -91 
Q 1303 -91 875 529 
Q 447 1150 447 2328 
Q 447 3434 972 4092 
Q 1497 4750 2381 4750 
Q 2619 4750 2861 4703 
Q 3103 4656 3366 4563 
z
" transform="scale(0.015625)"/>
       </defs>
       <use xlink:href="#DejaVuSans-36"/>
      </g>
     </g>
    </g>
    <g id="xtick_9">
     <g id="line2d_18">
      <path d="M 365.390635 225.467717 
L 365.390635 56.806299 
" clip-path="url(#p507b9b0753)" style="fill: none; stroke: #cccccc; stroke-linecap: round"/>
     </g>
     <g id="line2d_19">
      <g>
       <use xlink:href="#m6e6f201342" x="365.390635" y="225.467717" style="stroke: #000000; stroke-width: 1.25"/>
      </g>
     </g>
     <g id="text_4">
      <!-- 8 -->
      <g transform="translate(360.459698 246.745295) scale(0.155 -0.155)">
       <defs>
        <path id="DejaVuSans-38" d="M 2034 2216 
Q 1584 2216 1326 1975 
Q 1069 1734 1069 1313 
Q 1069 891 1326 650 
Q 1584 409 2034 409 
Q 2484 409 2743 651 
Q 3003 894 3003 1313 
Q 3003 1734 2745 1975 
Q 2488 2216 2034 2216 
z
M 1403 2484 
Q 997 2584 770 2862 
Q 544 3141 544 3541 
Q 544 4100 942 4425 
Q 1341 4750 2034 4750 
Q 2731 4750 3128 4425 
Q 3525 4100 3525 3541 
Q 3525 3141 3298 2862 
Q 3072 2584 2669 2484 
Q 3125 2378 3379 2068 
Q 3634 1759 3634 1313 
Q 3634 634 3220 271 
Q 2806 -91 2034 -91 
Q 1263 -91 848 271 
Q 434 634 434 1313 
Q 434 1759 690 2068 
Q 947 2378 1403 2484 
z
M 1172 3481 
Q 1172 3119 1398 2916 
Q 1625 2713 2034 2713 
Q 2441 2713 2670 2916 
Q 2900 3119 2900 3481 
Q 2900 3844 2670 4047 
Q 2441 4250 2034 4250 
Q 1625 4250 1398 4047 
Q 1172 3844 1172 3481 
z
" transform="scale(0.015625)"/>
       </defs>
       <use xlink:href="#DejaVuSans-38"/>
      </g>
     </g>
    </g>
    <g id="xtick_10">
     <g id="line2d_20">
      <path d="M 445.632402 225.467717 
L 445.632402 56.806299 
" clip-path="url(#p507b9b0753)" style="fill: none; stroke: #cccccc; stroke-linecap: round"/>
     </g>
     <g id="line2d_21">
      <g>
       <use xlink:href="#m6e6f201342" x="445.632402" y="225.467717" style="stroke: #000000; stroke-width: 1.25"/>
      </g>
     </g>
     <g id="text_5">
      <!-- 10 -->
      <g transform="translate(435.770527 246.745295) scale(0.155 -0.155)">
       <defs>
        <path id="DejaVuSans-31" d="M 794 531 
L 1825 531 
L 1825 4091 
L 703 3866 
L 703 4441 
L 1819 4666 
L 2450 4666 
L 2450 531 
L 3481 531 
L 3481 0 
L 794 0 
L 794 531 
z
" transform="scale(0.015625)"/>
        <path id="DejaVuSans-30" d="M 2034 4250 
Q 1547 4250 1301 3770 
Q 1056 3291 1056 2328 
Q 1056 1369 1301 889 
Q 1547 409 2034 409 
Q 2525 409 2770 889 
Q 3016 1369 3016 2328 
Q 3016 3291 2770 3770 
Q 2525 4250 2034 4250 
z
M 2034 4750 
Q 2819 4750 3233 4129 
Q 3647 3509 3647 2328 
Q 3647 1150 3233 529 
Q 2819 -91 2034 -91 
Q 1250 -91 836 529 
Q 422 1150 422 2328 
Q 422 3509 836 4129 
Q 1250 4750 2034 4750 
z
" transform="scale(0.015625)"/>
       </defs>
       <use xlink:href="#DejaVuSans-31"/>
       <use xlink:href="#DejaVuSans-30" x="63.623047"/>
      </g>
     </g>
    </g>
    <g id="text_6">
     <!-- $x_{i}$ variable -->
     <g transform="translate(244.904258 265.746388) scale(0.155 -0.155)">
      <defs>
       <path id="DejaVuSans-Oblique-78" d="M 3841 3500 
L 2234 1784 
L 3219 0 
L 2559 0 
L 1819 1388 
L 531 0 
L -166 0 
L 1556 1844 
L 641 3500 
L 1300 3500 
L 1972 2234 
L 3144 3500 
L 3841 3500 
z
" transform="scale(0.015625)"/>
       <path id="DejaVuSans-Oblique-69" d="M 1172 4863 
L 1747 4863 
L 1606 4134 
L 1031 4134 
L 1172 4863 
z
M 909 3500 
L 1484 3500 
L 800 0 
L 225 0 
L 909 3500 
z
" transform="scale(0.015625)"/>
       <path id="DejaVuSans-20" transform="scale(0.015625)"/>
       <path id="DejaVuSans-76" d="M 191 3500 
L 800 3500 
L 1894 563 
L 2988 3500 
L 3597 3500 
L 2284 0 
L 1503 0 
L 191 3500 
z
" transform="scale(0.015625)"/>
       <path id="DejaVuSans-61" d="M 2194 1759 
Q 1497 1759 1228 1600 
Q 959 1441 959 1056 
Q 959 750 1161 570 
Q 1363 391 1709 391 
Q 2188 391 2477 730 
Q 2766 1069 2766 1631 
L 2766 1759 
L 2194 1759 
z
M 3341 1997 
L 3341 0 
L 2766 0 
L 2766 531 
Q 2569 213 2275 61 
Q 1981 -91 1556 -91 
Q 1019 -91 701 211 
Q 384 513 384 1019 
Q 384 1609 779 1909 
Q 1175 2209 1959 2209 
L 2766 2209 
L 2766 2266 
Q 2766 2663 2505 2880 
Q 2244 3097 1772 3097 
Q 1472 3097 1187 3025 
Q 903 2953 641 2809 
L 641 3341 
Q 956 3463 1253 3523 
Q 1550 3584 1831 3584 
Q 2591 3584 2966 3190 
Q 3341 2797 3341 1997 
z
" transform="scale(0.015625)"/>
       <path id="DejaVuSans-72" d="M 2631 2963 
Q 2534 3019 2420 3045 
Q 2306 3072 2169 3072 
Q 1681 3072 1420 2755 
Q 1159 2438 1159 1844 
L 1159 0 
L 581 0 
L 581 3500 
L 1159 3500 
L 1159 2956 
Q 1341 3275 1631 3429 
Q 1922 3584 2338 3584 
Q 2397 3584 2469 3576 
Q 2541 3569 2628 3553 
L 2631 2963 
z
" transform="scale(0.015625)"/>
       <path id="DejaVuSans-69" d="M 603 3500 
L 1178 3500 
L 1178 0 
L 603 0 
L 603 3500 
z
M 603 4863 
L 1178 4863 
L 1178 4134 
L 603 4134 
L 603 4863 
z
" transform="scale(0.015625)"/>
       <path id="DejaVuSans-62" d="M 3116 1747 
Q 3116 2381 2855 2742 
Q 2594 3103 2138 3103 
Q 1681 3103 1420 2742 
Q 1159 2381 1159 1747 
Q 1159 1113 1420 752 
Q 1681 391 2138 391 
Q 2594 391 2855 752 
Q 3116 1113 3116 1747 
z
M 1159 2969 
Q 1341 3281 1617 3432 
Q 1894 3584 2278 3584 
Q 2916 3584 3314 3078 
Q 3713 2572 3713 1747 
Q 3713 922 3314 415 
Q 2916 -91 2278 -91 
Q 1894 -91 1617 61 
Q 1341 213 1159 525 
L 1159 0 
L 581 0 
L 581 4863 
L 1159 4863 
L 1159 2969 
z
" transform="scale(0.015625)"/>
       <path id="DejaVuSans-6c" d="M 603 4863 
L 1178 4863 
L 1178 0 
L 603 0 
L 603 4863 
z
" transform="scale(0.015625)"/>
       <path id="DejaVuSans-65" d="M 3597 1894 
L 3597 1613 
L 953 1613 
Q 991 1019 1311 708 
Q 1631 397 2203 397 
Q 2534 397 2845 478 
Q 3156 559 3463 722 
L 3463 178 
Q 3153 47 2828 -22 
Q 2503 -91 2169 -91 
Q 1331 -91 842 396 
Q 353 884 353 1716 
Q 353 2575 817 3079 
Q 1281 3584 2069 3584 
Q 2775 3584 3186 3129 
Q 3597 2675 3597 1894 
z
M 3022 2063 
Q 3016 2534 2758 2815 
Q 2500 3097 2075 3097 
Q 1594 3097 1305 2825 
Q 1016 2553 972 2059 
L 3022 2063 
z
" transform="scale(0.015625)"/>
      </defs>
      <use xlink:href="#DejaVuSans-Oblique-78" transform="translate(0 0.015625)"/>
      <use xlink:href="#DejaVuSans-Oblique-69" transform="translate(59.179688 -16.390625) scale(0.7)"/>
      <use xlink:href="#DejaVuSans-20" transform="translate(81.362305 0.015625)"/>
      <use xlink:href="#DejaVuSans-76" transform="translate(113.149414 0.015625)"/>
      <use xlink:href="#DejaVuSans-61" transform="translate(172.329102 0.015625)"/>
      <use xlink:href="#DejaVuSans-72" transform="translate(233.608398 0.015625)"/>
      <use xlink:href="#DejaVuSans-69" transform="translate(274.72168 0.015625)"/>
      <use xlink:href="#DejaVuSans-61" transform="translate(302.504883 0.015625)"/>
      <use xlink:href="#DejaVuSans-62" transform="translate(363.78418 0.015625)"/>
      <use xlink:href="#DejaVuSans-6c" transform="translate(427.260742 0.015625)"/>
      <use xlink:href="#DejaVuSans-65" transform="translate(455.043945 0.015625)"/>
     </g>
    </g>
   </g>
   <g id="matplotlib.axis_4">
    <g id="ytick_1">
     <g id="line2d_22">
      <path d="M 65.286719 225.467717 
L 504.656797 225.467717 
" clip-path="url(#p507b9b0753)" style="fill: none; stroke: #cccccc; stroke-linecap: round"/>
     </g>
     <g id="line2d_23">
      <defs>
       <path id="mf3e87bfbdb" d="M 0 0 
L -6 0 
" style="stroke: #000000; stroke-width: 1.25"/>
      </defs>
      <g>
       <use xlink:href="#mf3e87bfbdb" x="65.286719" y="225.467717" style="stroke: #000000; stroke-width: 1.25"/>
      </g>
     </g>
     <g id="text_7">
      <!-- 0 -->
      <g transform="translate(45.924844 231.356506) scale(0.155 -0.155)">
       <use xlink:href="#DejaVuSans-30"/>
      </g>
     </g>
    </g>
    <g id="ytick_2">
     <g id="line2d_24">
      <path d="M 65.286719 184.490696 
L 504.656797 184.490696 
" clip-path="url(#p507b9b0753)" style="fill: none; stroke: #cccccc; stroke-linecap: round"/>
     </g>
     <g id="line2d_25">
      <g>
       <use xlink:href="#mf3e87bfbdb" x="65.286719" y="184.490696" style="stroke: #000000; stroke-width: 1.25"/>
      </g>
     </g>
     <g id="text_8">
      <!-- 50 -->
      <g transform="translate(36.062969 190.379485) scale(0.155 -0.155)">
       <defs>
        <path id="DejaVuSans-35" d="M 691 4666 
L 3169 4666 
L 3169 4134 
L 1269 4134 
L 1269 2991 
Q 1406 3038 1543 3061 
Q 1681 3084 1819 3084 
Q 2600 3084 3056 2656 
Q 3513 2228 3513 1497 
Q 3513 744 3044 326 
Q 2575 -91 1722 -91 
Q 1428 -91 1123 -41 
Q 819 9 494 109 
L 494 744 
Q 775 591 1075 516 
Q 1375 441 1709 441 
Q 2250 441 2565 725 
Q 2881 1009 2881 1497 
Q 2881 1984 2565 2268 
Q 2250 2553 1709 2553 
Q 1456 2553 1204 2497 
Q 953 2441 691 2322 
L 691 4666 
z
" transform="scale(0.015625)"/>
       </defs>
       <use xlink:href="#DejaVuSans-35"/>
       <use xlink:href="#DejaVuSans-30" x="63.623047"/>
      </g>
     </g>
    </g>
    <g id="ytick_3">
     <g id="line2d_26">
      <path d="M 65.286719 143.513675 
L 504.656797 143.513675 
" clip-path="url(#p507b9b0753)" style="fill: none; stroke: #cccccc; stroke-linecap: round"/>
     </g>
     <g id="line2d_27">
      <g>
       <use xlink:href="#mf3e87bfbdb" x="65.286719" y="143.513675" style="stroke: #000000; stroke-width: 1.25"/>
      </g>
     </g>
     <g id="text_9">
      <!-- 100 -->
      <g transform="translate(26.201094 149.402464) scale(0.155 -0.155)">
       <use xlink:href="#DejaVuSans-31"/>
       <use xlink:href="#DejaVuSans-30" x="63.623047"/>
       <use xlink:href="#DejaVuSans-30" x="127.246094"/>
      </g>
     </g>
    </g>
    <g id="ytick_4">
     <g id="line2d_28">
      <path d="M 65.286719 102.536654 
L 504.656797 102.536654 
" clip-path="url(#p507b9b0753)" style="fill: none; stroke: #cccccc; stroke-linecap: round"/>
     </g>
     <g id="line2d_29">
      <g>
       <use xlink:href="#mf3e87bfbdb" x="65.286719" y="102.536654" style="stroke: #000000; stroke-width: 1.25"/>
      </g>
     </g>
     <g id="text_10">
      <!-- 150 -->
      <g transform="translate(26.201094 108.425443) scale(0.155 -0.155)">
       <use xlink:href="#DejaVuSans-31"/>
       <use xlink:href="#DejaVuSans-35" x="63.623047"/>
       <use xlink:href="#DejaVuSans-30" x="127.246094"/>
      </g>
     </g>
    </g>
    <g id="ytick_5">
     <g id="line2d_30">
      <path d="M 65.286719 61.559634 
L 504.656797 61.559634 
" clip-path="url(#p507b9b0753)" style="fill: none; stroke: #cccccc; stroke-linecap: round"/>
     </g>
     <g id="line2d_31">
      <g>
       <use xlink:href="#mf3e87bfbdb" x="65.286719" y="61.559634" style="stroke: #000000; stroke-width: 1.25"/>
      </g>
     </g>
     <g id="text_11">
      <!-- 200 -->
      <g transform="translate(26.201094 67.448423) scale(0.155 -0.155)">
       <use xlink:href="#DejaVuSans-32"/>
       <use xlink:href="#DejaVuSans-30" x="63.623047"/>
       <use xlink:href="#DejaVuSans-30" x="127.246094"/>
      </g>
     </g>
    </g>
    <g id="text_12">
     <!-- Frequency -->
     <g transform="translate(18.977578 181.173023) rotate(-90) scale(0.155 -0.155)">
      <defs>
       <path id="DejaVuSans-46" d="M 628 4666 
L 3309 4666 
L 3309 4134 
L 1259 4134 
L 1259 2759 
L 3109 2759 
L 3109 2228 
L 1259 2228 
L 1259 0 
L 628 0 
L 628 4666 
z
" transform="scale(0.015625)"/>
       <path id="DejaVuSans-71" d="M 947 1747 
Q 947 1113 1208 752 
Q 1469 391 1925 391 
Q 2381 391 2643 752 
Q 2906 1113 2906 1747 
Q 2906 2381 2643 2742 
Q 2381 3103 1925 3103 
Q 1469 3103 1208 2742 
Q 947 2381 947 1747 
z
M 2906 525 
Q 2725 213 2448 61 
Q 2172 -91 1784 -91 
Q 1150 -91 751 415 
Q 353 922 353 1747 
Q 353 2572 751 3078 
Q 1150 3584 1784 3584 
Q 2172 3584 2448 3432 
Q 2725 3281 2906 2969 
L 2906 3500 
L 3481 3500 
L 3481 -1331 
L 2906 -1331 
L 2906 525 
z
" transform="scale(0.015625)"/>
       <path id="DejaVuSans-75" d="M 544 1381 
L 544 3500 
L 1119 3500 
L 1119 1403 
Q 1119 906 1312 657 
Q 1506 409 1894 409 
Q 2359 409 2629 706 
Q 2900 1003 2900 1516 
L 2900 3500 
L 3475 3500 
L 3475 0 
L 2900 0 
L 2900 538 
Q 2691 219 2414 64 
Q 2138 -91 1772 -91 
Q 1169 -91 856 284 
Q 544 659 544 1381 
z
M 1991 3584 
L 1991 3584 
z
" transform="scale(0.015625)"/>
       <path id="DejaVuSans-6e" d="M 3513 2113 
L 3513 0 
L 2938 0 
L 2938 2094 
Q 2938 2591 2744 2837 
Q 2550 3084 2163 3084 
Q 1697 3084 1428 2787 
Q 1159 2491 1159 1978 
L 1159 0 
L 581 0 
L 581 3500 
L 1159 3500 
L 1159 2956 
Q 1366 3272 1645 3428 
Q 1925 3584 2291 3584 
Q 2894 3584 3203 3211 
Q 3513 2838 3513 2113 
z
" transform="scale(0.015625)"/>
       <path id="DejaVuSans-63" d="M 3122 3366 
L 3122 2828 
Q 2878 2963 2633 3030 
Q 2388 3097 2138 3097 
Q 1578 3097 1268 2742 
Q 959 2388 959 1747 
Q 959 1106 1268 751 
Q 1578 397 2138 397 
Q 2388 397 2633 464 
Q 2878 531 3122 666 
L 3122 134 
Q 2881 22 2623 -34 
Q 2366 -91 2075 -91 
Q 1284 -91 818 406 
Q 353 903 353 1747 
Q 353 2603 823 3093 
Q 1294 3584 2113 3584 
Q 2378 3584 2631 3529 
Q 2884 3475 3122 3366 
z
" transform="scale(0.015625)"/>
       <path id="DejaVuSans-79" d="M 2059 -325 
Q 1816 -950 1584 -1140 
Q 1353 -1331 966 -1331 
L 506 -1331 
L 506 -850 
L 844 -850 
Q 1081 -850 1212 -737 
Q 1344 -625 1503 -206 
L 1606 56 
L 191 3500 
L 800 3500 
L 1894 763 
L 2988 3500 
L 3597 3500 
L 2059 -325 
z
" transform="scale(0.015625)"/>
      </defs>
      <use xlink:href="#DejaVuSans-46"/>
      <use xlink:href="#DejaVuSans-72" x="50.269531"/>
      <use xlink:href="#DejaVuSans-65" x="89.132812"/>
      <use xlink:href="#DejaVuSans-71" x="150.65625"/>
      <use xlink:href="#DejaVuSans-75" x="214.132812"/>
      <use xlink:href="#DejaVuSans-65" x="277.511719"/>
      <use xlink:href="#DejaVuSans-6e" x="339.035156"/>
      <use xlink:href="#DejaVuSans-63" x="402.414062"/>
      <use xlink:href="#DejaVuSans-79" x="457.394531"/>
     </g>
    </g>
   </g>
   <g id="patch_6">
    <path d="M 85.258086 225.467717 
L 105.229453 225.467717 
L 105.229453 217.272312 
L 85.258086 217.272312 
z
" clip-path="url(#p507b9b0753)" style="fill: #0099cc; fill-opacity: 0.75; stroke: #ffffff; stroke-linejoin: miter"/>
   </g>
   <g id="patch_7">
    <path d="M 105.229453 225.467717 
L 125.20082 225.467717 
L 125.20082 177.934372 
L 105.229453 177.934372 
z
" clip-path="url(#p507b9b0753)" style="fill: #0099cc; fill-opacity: 0.75; stroke: #ffffff; stroke-linejoin: miter"/>
   </g>
   <g id="patch_8">
    <path d="M 125.20082 225.467717 
L 145.172188 225.467717 
L 145.172188 131.220569 
L 125.20082 131.220569 
z
" clip-path="url(#p507b9b0753)" style="fill: #0099cc; fill-opacity: 0.75; stroke: #ffffff; stroke-linejoin: miter"/>
   </g>
   <g id="patch_9">
    <path d="M 145.172188 225.467717 
L 165.143555 225.467717 
L 165.143555 86.145846 
L 145.172188 86.145846 
z
" clip-path="url(#p507b9b0753)" style="fill: #0099cc; fill-opacity: 0.75; stroke: #ffffff; stroke-linejoin: miter"/>
   </g>
   <g id="patch_10">
    <path d="M 165.143555 225.467717 
L 185.114922 225.467717 
L 185.114922 64.837795 
L 165.143555 64.837795 
z
" clip-path="url(#p507b9b0753)" style="fill: #0099cc; fill-opacity: 0.75; stroke: #ffffff; stroke-linejoin: miter"/>
   </g>
   <g id="patch_11">
    <path d="M 185.114922 225.467717 
L 205.086289 225.467717 
L 205.086289 104.995276 
L 185.114922 104.995276 
z
" clip-path="url(#p507b9b0753)" style="fill: #0099cc; fill-opacity: 0.75; stroke: #ffffff; stroke-linejoin: miter"/>
   </g>
   <g id="patch_12">
    <path d="M 205.086289 225.467717 
L 225.057656 225.467717 
L 225.057656 130.401028 
L 205.086289 130.401028 
z
" clip-path="url(#p507b9b0753)" style="fill: #0099cc; fill-opacity: 0.75; stroke: #ffffff; stroke-linejoin: miter"/>
   </g>
   <g id="patch_13">
    <path d="M 225.057656 225.467717 
L 245.029024 225.467717 
L 245.029024 172.19759 
L 225.057656 172.19759 
z
" clip-path="url(#p507b9b0753)" style="fill: #0099cc; fill-opacity: 0.75; stroke: #ffffff; stroke-linejoin: miter"/>
   </g>
   <g id="patch_14">
    <path d="M 245.029024 225.467717 
L 265.000391 225.467717 
L 265.000391 188.588398 
L 245.029024 188.588398 
z
" clip-path="url(#p507b9b0753)" style="fill: #0099cc; fill-opacity: 0.75; stroke: #ffffff; stroke-linejoin: miter"/>
   </g>
   <g id="patch_15">
    <path d="M 265.000391 225.467717 
L 284.971758 225.467717 
L 284.971758 199.242423 
L 265.000391 199.242423 
z
" clip-path="url(#p507b9b0753)" style="fill: #0099cc; fill-opacity: 0.75; stroke: #ffffff; stroke-linejoin: miter"/>
   </g>
   <g id="patch_16">
    <path d="M 284.971758 225.467717 
L 304.943125 225.467717 
L 304.943125 211.535529 
L 284.971758 211.535529 
z
" clip-path="url(#p507b9b0753)" style="fill: #0099cc; fill-opacity: 0.75; stroke: #ffffff; stroke-linejoin: miter"/>
   </g>
   <g id="patch_17">
    <path d="M 304.943125 225.467717 
L 324.914493 225.467717 
L 324.914493 217.272312 
L 304.943125 217.272312 
z
" clip-path="url(#p507b9b0753)" style="fill: #0099cc; fill-opacity: 0.75; stroke: #ffffff; stroke-linejoin: miter"/>
   </g>
   <g id="patch_18">
    <path d="M 324.914493 225.467717 
L 344.88586 225.467717 
L 344.88586 221.370014 
L 324.914493 221.370014 
z
" clip-path="url(#p507b9b0753)" style="fill: #0099cc; fill-opacity: 0.75; stroke: #ffffff; stroke-linejoin: miter"/>
   </g>
   <g id="patch_19">
    <path d="M 344.88586 225.467717 
L 364.857227 225.467717 
L 364.857227 221.370014 
L 344.88586 221.370014 
z
" clip-path="url(#p507b9b0753)" style="fill: #0099cc; fill-opacity: 0.75; stroke: #ffffff; stroke-linejoin: miter"/>
   </g>
   <g id="patch_20">
    <path d="M 364.857227 225.467717 
L 384.828594 225.467717 
L 384.828594 221.370014 
L 364.857227 221.370014 
z
" clip-path="url(#p507b9b0753)" style="fill: #0099cc; fill-opacity: 0.75; stroke: #ffffff; stroke-linejoin: miter"/>
   </g>
   <g id="patch_21">
    <path d="M 384.828594 225.467717 
L 404.799961 225.467717 
L 404.799961 225.467717 
L 384.828594 225.467717 
z
" clip-path="url(#p507b9b0753)" style="fill: #0099cc; fill-opacity: 0.75; stroke: #ffffff; stroke-linejoin: miter"/>
   </g>
   <g id="patch_22">
    <path d="M 404.799961 225.467717 
L 424.771329 225.467717 
L 424.771329 223.828636 
L 404.799961 223.828636 
z
" clip-path="url(#p507b9b0753)" style="fill: #0099cc; fill-opacity: 0.75; stroke: #ffffff; stroke-linejoin: miter"/>
   </g>
   <g id="patch_23">
    <path d="M 424.771329 225.467717 
L 444.742696 225.467717 
L 444.742696 224.648176 
L 424.771329 224.648176 
z
" clip-path="url(#p507b9b0753)" style="fill: #0099cc; fill-opacity: 0.75; stroke: #ffffff; stroke-linejoin: miter"/>
   </g>
   <g id="patch_24">
    <path d="M 444.742696 225.467717 
L 464.714063 225.467717 
L 464.714063 225.467717 
L 444.742696 225.467717 
z
" clip-path="url(#p507b9b0753)" style="fill: #0099cc; fill-opacity: 0.75; stroke: #ffffff; stroke-linejoin: miter"/>
   </g>
   <g id="patch_25">
    <path d="M 464.714063 225.467717 
L 484.68543 225.467717 
L 484.68543 224.648176 
L 464.714063 224.648176 
z
" clip-path="url(#p507b9b0753)" style="fill: #0099cc; fill-opacity: 0.75; stroke: #ffffff; stroke-linejoin: miter"/>
   </g>
   <g id="patch_26">
    <path d="M 65.286719 225.467717 
L 65.286719 56.806299 
" style="fill: none; stroke: #262626; stroke-width: 1.25; stroke-linejoin: miter; stroke-linecap: square"/>
   </g>
   <g id="patch_27">
    <path d="M 65.286719 225.467717 
L 504.656797 225.467717 
" style="fill: none; stroke: #262626; stroke-width: 1.25; stroke-linejoin: miter; stroke-linecap: square"/>
   </g>
  </g>
 </g>
 <defs>
  <clipPath id="pb1b10a4805">
   <rect x="65.286719" y="7.2" width="439.370079" height="29.76378"/>
  </clipPath>
  <clipPath id="p507b9b0753">
   <rect x="65.286719" y="56.806299" width="439.370079" height="168.661417"/>
  </clipPath>
 </defs>
</svg>
